<svg xmlns="http://www.w3.org/2000/svg" viewBox="0 0 960 540" role="img"
     aria-label="M5 forecasting pipeline animation: training context, rolling-origin CV split, feature build, LightGBM prediction, scoring against held-out truth.">
  <title>M5 pipeline — fit, predict, score (animated)</title>
  <desc>Animated SVG visualising the M5 forecasting pipeline on a single hero
  series (FOODS · 3 · 634 · WI · 1): trailing training context draws in,
  the cross-validation cutoff slides into place, feature pills appear at the
  cutoff, the LightGBM forecast is drawn alongside a Seasonal-Naive baseline,
  truth overlays with error bars, and a final RMSE comparison settles in.</desc>
  <style><![CDATA[
    .panel  { fill: #0d1117; }
    .border { fill: none; stroke: #30363d; stroke-width: 1; }
    .title  { fill: #f0f6fc; font: 600 18px ui-sans-serif, system-ui, sans-serif; }
    .caption{ fill: #8b949e; font: 13px ui-monospace, SFMono-Regular, monospace; }
    .meta   { fill: #6e7681; font: 11px ui-monospace, SFMono-Regular, monospace; }
    .grid   { stroke: #21262d; stroke-width: 1; stroke-dasharray: 2 4; }
    .tick   { stroke: #484f58; stroke-width: 1; }
    .axis   { stroke: #30363d; stroke-width: 1; }
    .train  { stroke: #c9d1d9; stroke-width: 1.6; fill: none; }
    .truth  { stroke: #58a6ff; stroke-width: 2.0; fill: none; stroke-linecap: round; }
    .fc     { stroke: #f778ba; stroke-width: 2.2; fill: none; stroke-linecap: round; }
    .base   { stroke: #d29922; stroke-width: 1.6; fill: none; stroke-dasharray: 4 3; }
    .err    { stroke: #f85149; stroke-width: 1.4; opacity: 0.55; }
    .train-mask { fill: #58a6ff; opacity: 0.04; }
    .test-mask  { fill: #f778ba; opacity: 0.07; }
    .cutoff { stroke: #f778ba; stroke-width: 1.6; stroke-dasharray: 4 4; }
    .legend-sw { stroke-width: 3; stroke-linecap: round; }
    .legend-tx { fill: #c9d1d9; font: 12px ui-monospace, SFMono-Regular, monospace; }
    .pill rect { fill: #161b22; stroke: #30363d; stroke-width: 1; }
    .pill text { fill: #8b949e; font: 600 9.5px ui-monospace, SFMono-Regular, monospace; letter-spacing: .02em; }
    .lb-bg  { fill: #161b22; stroke: #30363d; stroke-width: 1; }
    .lb-bar-base { fill: #d29922; }
    .lb-bar-lgbm { fill: #f778ba; }
    .lb-label { fill: #c9d1d9; font: 12px ui-monospace, SFMono-Regular, monospace; }
    .lb-num { fill: #f0f6fc; font: 600 13px ui-monospace, SFMono-Regular, monospace; }
    .lift-ok { fill: #3fb950; font: 700 16px ui-monospace, SFMono-Regular, monospace; }
    .lift-bad{ fill: #f85149; font: 700 16px ui-monospace, SFMono-Regular, monospace; }
  ]]></style>
  <defs>
    <!-- Static rect width = final reveal width so non-SMIL renderers show
         the fully-revealed lines. SMIL viewers see the animation override. -->
    <clipPath id="reveal-train">
      <rect x="58" y="91" height="273" width="630.1">
        <animate attributeName="width"
          values="0;0;630.1;630.1;630.1"
          keyTimes="0;0.1286;0.2143;0.9964;1"
          dur="14.0s" repeatCount="indefinite"/>
      </rect>
    </clipPath>
    <clipPath id="reveal-fc">
      <rect x="688.11" y="91" height="273" width="213.9">
        <animate attributeName="width"
          values="0;0;213.9;213.9;213.9"
          keyTimes="0;0.4643;0.5714;0.9964;1"
          dur="14.0s" repeatCount="indefinite"/>
      </rect>
    </clipPath>
    <clipPath id="reveal-truth">
      <rect x="688.11" y="91" height="273" width="213.9">
        <animate attributeName="width"
          values="0;0;213.9;213.9;213.9"
          keyTimes="0;0.6071;0.6929;0.9964;1"
          dur="14.0s" repeatCount="indefinite"/>
      </rect>
    </clipPath>
  </defs>

  <rect class="panel" width="960" height="540" rx="10"/>
  <rect class="border" x="0.5" y="0.5" width="959" height="539" rx="10"/>

  <text class="title" x="60" y="42">M5 pipeline · fit → predict → score</text>
  <text class="meta" x="60" y="528">30,490 series  ·  trained @ 2016-05-22  ·  mlforecast 1.0.31</text>
  <text class="meta" x="900" y="528" text-anchor="end">hero · FOODS · 3 · 634 · WI · 1</text>

  <text x="60" y="68" class="caption" opacity="0">30,490 series · pick one
              <animate attributeName="opacity"
                       values="0;1;1;0"
                       keyTimes="0;0.0143;0.1143;0.1286"
                       dur="14.0s" repeatCount="indefinite"/>
            </text><text x="60" y="68" class="caption" opacity="0">Training context — last 84 days of FOODS · 3 · 634 · WI · 1
              <animate attributeName="opacity"
                       values="0;1;1;0"
                       keyTimes="0;0.1429;0.2;0.2143"
                       dur="14.0s" repeatCount="indefinite"/>
            </text><text x="60" y="68" class="caption" opacity="0">Rolling-origin CV: hold out h=28 days
              <animate attributeName="opacity"
                       values="0;1;1;0"
                       keyTimes="0;0.2286;0.3071;0.3214"
                       dur="14.0s" repeatCount="indefinite"/>
            </text><text x="60" y="68" class="caption" opacity="0">Build features at the cutoff: 8 columns
              <animate attributeName="opacity"
                       values="0;1;1;0"
                       keyTimes="0;0.3357;0.45;0.4643"
                       dur="14.0s" repeatCount="indefinite"/>
            </text><text x="60" y="68" class="caption" opacity="0">Fit LightGBM (Tweedie) — global model across all series
              <animate attributeName="opacity"
                       values="0;1;1;0"
                       keyTimes="0;0.4786;0.5571;0.5714"
                       dur="14.0s" repeatCount="indefinite"/>
            </text><text x="60" y="68" class="caption" opacity="0">Predict 28 days from 2016-04-24
              <animate attributeName="opacity"
                       values="0;1;1;0"
                       keyTimes="0;0.5857;0.7;0.7143"
                       dur="14.0s" repeatCount="indefinite"/>
            </text><text x="60" y="68" class="caption" opacity="1">Score vs truth — RMSE LGBM 2.30 vs Naive 3.36
              <animate attributeName="opacity"
                       values="0;1;1;1"
                       keyTimes="0;0.7286;0.9857;1"
                       dur="14.0s" repeatCount="indefinite"/>
            </text>

  <g>
    <line x1="60" y1="161.25" x2="900" y2="161.25" class="grid"/><line x1="60" y1="227.50" x2="900" y2="227.50" class="grid"/><line x1="60" y1="293.75" x2="900" y2="293.75" class="grid"/>
    <line x1="60" y1="95" x2="60" y2="360" class="axis"/>
    <line x1="60" y1="360" x2="900" y2="360" class="axis"/>
    <line x1="60.00" y1="360" x2="60.00" y2="364" class="tick"/><line x1="165.95" y1="360" x2="165.95" y2="364" class="tick"/><line x1="271.89" y1="360" x2="271.89" y2="364" class="tick"/><line x1="377.84" y1="360" x2="377.84" y2="364" class="tick"/><line x1="483.78" y1="360" x2="483.78" y2="364" class="tick"/><line x1="589.73" y1="360" x2="589.73" y2="364" class="tick"/><line x1="695.68" y1="360" x2="695.68" y2="364" class="tick"/><line x1="801.62" y1="360" x2="801.62" y2="364" class="tick"/>
  </g>

  <g class="train-mask" opacity="1">
    <rect x="60" y="95" width="628.11" height="265"/>
    <animate attributeName="opacity" values="0;0;1;1;1" keyTimes="0;0.2143;0.25;0.9964;1" dur="14.0s" repeatCount="indefinite"/>
  </g>
  <g class="test-mask" opacity="1">
    <rect x="688.11" y="95" width="211.89" height="265"/>
    <animate attributeName="opacity" values="0;0;1;1;1" keyTimes="0;0.2286;0.2643;0.9964;1" dur="14.0s" repeatCount="indefinite"/>
  </g>

  <g clip-path="url(#reveal-train)">
    <polyline class="train" points="60.00,304.14 67.57,325.09 75.14,346.03 82.70,311.12 90.27,269.22 97.84,129.57 105.41,171.46 112.97,346.03 120.54,318.10 128.11,346.03 135.68,276.21 143.24,276.21 150.81,311.12 158.38,318.10 165.95,353.02 173.51,332.07 181.08,311.12 188.65,353.02 196.22,290.17 203.78,276.21 211.35,325.09 218.92,332.07 226.49,339.05 234.05,318.10 241.62,332.07 249.19,339.05 256.76,290.17 264.32,318.10 271.89,346.03 279.46,332.07 287.03,339.05 294.59,325.09 302.16,325.09 309.73,290.17 317.30,311.12 324.86,346.03 332.43,353.02 340.00,332.07 347.57,318.10 355.14,332.07 362.70,332.07 370.27,339.05 377.84,346.03 385.41,318.10 392.97,346.03 400.54,346.03 408.11,332.07 415.68,283.19 423.24,325.09 430.81,332.07 438.38,353.02 445.95,325.09 453.51,304.14 461.08,276.21 468.65,283.19 476.22,318.10 483.78,332.07 491.35,353.02 498.92,346.03 506.49,325.09 514.05,332.07 521.62,262.24 529.19,318.10 536.76,318.10 544.32,325.09 551.89,332.07 559.46,290.17 567.03,325.09 574.59,283.19 582.16,332.07 589.73,332.07 597.30,325.09 604.86,353.02 612.43,332.07 620.00,318.10 627.57,262.24 635.14,311.12 642.70,325.09 650.27,353.02 657.84,297.15 665.41,332.07 672.97,297.15 680.54,325.09 688.11,311.12"/>
  </g>

  <g opacity="1">
    <line class="cutoff" x1="688.11" y1="89" x2="688.11" y2="366"/>
    <text class="caption" x="688.11" y="71" text-anchor="middle">cutoff · 2016-04-24</text>
    <animate attributeName="opacity" values="0;0;1;1;1" keyTimes="0;0.2143;0.2571;0.9964;1" dur="14.0s" repeatCount="indefinite"/>
  </g>

  <g class="pill" opacity="1">
              <rect x="700.1" y="67.0" width="50" height="18" rx="9" />
              <text x="725.1" y="80.0" text-anchor="middle">lag 7</text>
              <animate attributeName="opacity"
                       values="0;0;0;1;1;1;1"
                       keyTimes="0;0.3;0.3214;0.3571;0.6786;0.9964;1"
                       dur="14.0s" repeatCount="indefinite"/>
            </g><g class="pill" opacity="1">
              <rect x="756.1" y="67.0" width="50" height="18" rx="9" />
              <text x="781.1" y="80.0" text-anchor="middle">lag 14</text>
              <animate attributeName="opacity"
                       values="0;0;0;1;1;1;1"
                       keyTimes="0;0.3;0.3257;0.3614;0.6786;0.9964;1"
                       dur="14.0s" repeatCount="indefinite"/>
            </g><g class="pill" opacity="1">
              <rect x="812.1" y="67.0" width="50" height="18" rx="9" />
              <text x="837.1" y="80.0" text-anchor="middle">lag 28</text>
              <animate attributeName="opacity"
                       values="0;0;0;1;1;1;1"
                       keyTimes="0;0.3;0.33;0.3657;0.6786;0.9964;1"
                       dur="14.0s" repeatCount="indefinite"/>
            </g><g class="pill" opacity="1">
              <rect x="868.1" y="67.0" width="50" height="18" rx="9" />
              <text x="893.1" y="80.0" text-anchor="middle">roll 7</text>
              <animate attributeName="opacity"
                       values="0;0;0;1;1;1;1"
                       keyTimes="0;0.3;0.3343;0.37;0.6786;0.9964;1"
                       dur="14.0s" repeatCount="indefinite"/>
            </g><g class="pill" opacity="1">
              <rect x="924.1" y="67.0" width="50" height="18" rx="9" />
              <text x="949.1" y="80.0" text-anchor="middle">roll 28</text>
              <animate attributeName="opacity"
                       values="0;0;0;1;1;1;1"
                       keyTimes="0;0.3;0.3386;0.3743;0.6786;0.9964;1"
                       dur="14.0s" repeatCount="indefinite"/>
            </g><g class="pill" opacity="1">
              <rect x="980.1" y="67.0" width="50" height="18" rx="9" />
              <text x="1005.1" y="80.0" text-anchor="middle">price</text>
              <animate attributeName="opacity"
                       values="0;0;0;1;1;1;1"
                       keyTimes="0;0.3;0.3429;0.3786;0.6786;0.9964;1"
                       dur="14.0s" repeatCount="indefinite"/>
            </g><g class="pill" opacity="1">
              <rect x="1036.1" y="67.0" width="50" height="18" rx="9" />
              <text x="1061.1" y="80.0" text-anchor="middle">snap</text>
              <animate attributeName="opacity"
                       values="0;0;0;1;1;1;1"
                       keyTimes="0;0.3;0.3471;0.3829;0.6786;0.9964;1"
                       dur="14.0s" repeatCount="indefinite"/>
            </g><g class="pill" opacity="1">
              <rect x="1092.1" y="67.0" width="50" height="18" rx="9" />
              <text x="1117.1" y="80.0" text-anchor="middle">is_event</text>
              <animate attributeName="opacity"
                       values="0;0;0;1;1;1;1"
                       keyTimes="0;0.3;0.3514;0.3871;0.6786;0.9964;1"
                       dur="14.0s" repeatCount="indefinite"/>
            </g>

  <g clip-path="url(#reveal-fc)">
    <polyline class="base" points="688.11,325.09 695.68,353.02 703.24,297.15 710.81,332.07 718.38,297.15 725.95,325.09 733.51,311.12 741.08,325.09 748.65,353.02 756.22,297.15 763.78,332.07 771.35,297.15 778.92,325.09 786.49,311.12 794.05,325.09 801.62,353.02 809.19,297.15 816.76,332.07 824.32,297.15 831.89,325.09 839.46,311.12 847.03,325.09 854.59,353.02 862.16,297.15 869.73,332.07 877.30,297.15 884.86,325.09 892.43,311.12"/>
    <polyline class="fc" points="688.11,332.95 695.68,334.38 703.24,333.12 710.81,332.38 718.38,319.37 725.95,304.10 733.51,307.83 741.08,332.41 748.65,331.98 756.22,330.89 763.78,327.12 771.35,312.85 778.92,301.27 786.49,311.97 794.05,331.48 801.62,331.69 809.19,331.42 816.76,329.07 824.32,316.32 831.89,301.68 839.46,302.10 847.03,333.09 854.59,332.80 862.16,329.55 869.73,330.19 877.30,311.58 884.86,302.38 892.43,304.53"/>
  </g>

  <g clip-path="url(#reveal-truth)">
    <polyline class="truth" points="688.11,325.09 695.68,339.05 703.24,346.03 710.81,332.07 718.38,339.05 725.95,304.14 733.51,311.12 741.08,325.09 748.65,339.05 756.22,297.15 763.78,332.07 771.35,318.10 778.92,339.05 786.49,290.17 794.05,332.07 801.62,325.09 809.19,325.09 816.76,339.05 824.32,304.14 831.89,290.17 839.46,318.10 847.03,339.05 854.59,332.07 862.16,353.02 869.73,325.09 877.30,290.17 884.86,283.19 892.43,339.05"/>
    <line x1="688.11" y1="325.09" x2="688.11" y2="332.95" class="err"/><line x1="695.68" y1="339.05" x2="695.68" y2="334.38" class="err"/><line x1="703.24" y1="346.03" x2="703.24" y2="333.12" class="err"/><line x1="710.81" y1="332.07" x2="710.81" y2="332.38" class="err"/><line x1="718.38" y1="339.05" x2="718.38" y2="319.37" class="err"/><line x1="725.95" y1="304.14" x2="725.95" y2="304.10" class="err"/><line x1="733.51" y1="311.12" x2="733.51" y2="307.83" class="err"/><line x1="741.08" y1="325.09" x2="741.08" y2="332.41" class="err"/><line x1="748.65" y1="339.05" x2="748.65" y2="331.98" class="err"/><line x1="756.22" y1="297.15" x2="756.22" y2="330.89" class="err"/><line x1="763.78" y1="332.07" x2="763.78" y2="327.12" class="err"/><line x1="771.35" y1="318.10" x2="771.35" y2="312.85" class="err"/><line x1="778.92" y1="339.05" x2="778.92" y2="301.27" class="err"/><line x1="786.49" y1="290.17" x2="786.49" y2="311.97" class="err"/><line x1="794.05" y1="332.07" x2="794.05" y2="331.48" class="err"/><line x1="801.62" y1="325.09" x2="801.62" y2="331.69" class="err"/><line x1="809.19" y1="325.09" x2="809.19" y2="331.42" class="err"/><line x1="816.76" y1="339.05" x2="816.76" y2="329.07" class="err"/><line x1="824.32" y1="304.14" x2="824.32" y2="316.32" class="err"/><line x1="831.89" y1="290.17" x2="831.89" y2="301.68" class="err"/><line x1="839.46" y1="318.10" x2="839.46" y2="302.10" class="err"/><line x1="847.03" y1="339.05" x2="847.03" y2="333.09" class="err"/><line x1="854.59" y1="332.07" x2="854.59" y2="332.80" class="err"/><line x1="862.16" y1="353.02" x2="862.16" y2="329.55" class="err"/><line x1="869.73" y1="325.09" x2="869.73" y2="330.19" class="err"/><line x1="877.30" y1="290.17" x2="877.30" y2="311.58" class="err"/><line x1="884.86" y1="283.19" x2="884.86" y2="302.38" class="err"/><line x1="892.43" y1="339.05" x2="892.43" y2="304.53" class="err"/>
  </g>

  <!-- Legend (top-right of plot) -->
  <g transform="translate(700,99)">
    <line class="legend-sw" x1="0" y1="0" x2="14" y2="0" stroke="#c9d1d9"/>
    <text class="legend-tx" x="20" y="4">train</text>
    <line class="legend-sw" x1="62" y1="0" x2="76" y2="0" stroke="#58a6ff"/>
    <text class="legend-tx" x="82" y="4">truth</text>
    <line class="legend-sw" x1="124" y1="0" x2="138" y2="0" stroke="#f778ba"/>
    <text class="legend-tx" x="144" y="4">LGBM</text>
  </g>

  <!-- Leaderboard panel -->
  <g transform="translate(140,415)" opacity="1">
    <animate attributeName="opacity" values="0;0;1;1;1" keyTimes="0;0.7143;0.7643;0.9964;1" dur="14.0s" repeatCount="indefinite"/>
    <rect class="lb-bg" x="-12" y="-12" width="344" height="114" rx="6"/>
    <text class="lb-label" x="0" y="6">RMSE on the held-out window</text>

    <text class="lb-label" x="0" y="32">Seasonal Naive</text>
    <rect class="lb-bar-base" x="120" y="20" rx="3"
          height="14" width="278.3">
      <animate attributeName="width" values="0;0;278.3;278.3;278.3"
               keyTimes="0;0.7429;0.8143;0.9964;1"
               dur="14.0s" repeatCount="indefinite"/>
    </rect>
    <text class="lb-num" x="326" y="32">3.36</text>

    <text class="lb-label" x="0" y="62">LightGBM</text>
    <rect class="lb-bar-lgbm" x="120" y="50" rx="3"
          height="14" width="190.2">
      <animate attributeName="width" values="0;0;190.2;190.2;190.2"
               keyTimes="0;0.7571;0.8286;0.9964;1"
               dur="14.0s" repeatCount="indefinite"/>
    </rect>
    <text class="lb-num" x="326" y="62">2.30</text>

    <text class="lift-ok" x="0" y="92">-31.7% RMSE</text>
  </g>
</svg>
