<svg xmlns="http://www.w3.org/2000/svg" viewBox="0 0 960 540" role="img"
     aria-label="M5 forecasting pipeline animation: training context, rolling-origin CV split, feature build, LightGBM prediction, scoring against held-out truth.">
  <title>M5 pipeline — fit, predict, score (animated)</title>
  <desc>Animated SVG visualising the M5 forecasting pipeline on a single hero
  series (FOODS · 3 · 723 · CA · 2): trailing training context draws in,
  the cross-validation cutoff slides into place, feature pills appear at the
  cutoff, the LightGBM forecast is drawn alongside a Seasonal-Naive baseline,
  truth overlays with error bars, and a final RMSE comparison settles in.</desc>
  <style><![CDATA[
    .panel  { fill: #0d1117; }
    .border { fill: none; stroke: #30363d; stroke-width: 1; }
    .title  { fill: #f0f6fc; font: 600 18px ui-sans-serif, system-ui, sans-serif; }
    .caption{ fill: #8b949e; font: 13px ui-monospace, SFMono-Regular, monospace; }
    .meta   { fill: #6e7681; font: 11px ui-monospace, SFMono-Regular, monospace; }
    .grid   { stroke: #21262d; stroke-width: 1; stroke-dasharray: 2 4; }
    .tick   { stroke: #484f58; stroke-width: 1; }
    .axis   { stroke: #30363d; stroke-width: 1; }
    .train  { stroke: #c9d1d9; stroke-width: 1.6; fill: none; }
    .truth  { stroke: #58a6ff; stroke-width: 2.0; fill: none; stroke-linecap: round; }
    .fc     { stroke: #f778ba; stroke-width: 2.2; fill: none; stroke-linecap: round; }
    .base   { stroke: #d29922; stroke-width: 1.6; fill: none; stroke-dasharray: 4 3; }
    .err    { stroke: #f85149; stroke-width: 1.4; opacity: 0.55; }
    .train-mask { fill: #58a6ff; opacity: 0.04; }
    .test-mask  { fill: #f778ba; opacity: 0.07; }
    .cutoff { stroke: #f778ba; stroke-width: 1.6; stroke-dasharray: 4 4; }
    .legend-sw { stroke-width: 3; stroke-linecap: round; }
    .legend-tx { fill: #c9d1d9; font: 12px ui-monospace, SFMono-Regular, monospace; }
    .pill rect { fill: #161b22; stroke: #30363d; stroke-width: 1; }
    .pill text { fill: #8b949e; font: 600 9.5px ui-monospace, SFMono-Regular, monospace; letter-spacing: .02em; }
    .lb-bg  { fill: #161b22; stroke: #30363d; stroke-width: 1; }
    .lb-bar-base { fill: #d29922; }
    .lb-bar-lgbm { fill: #f778ba; }
    .lb-label { fill: #c9d1d9; font: 12px ui-monospace, SFMono-Regular, monospace; }
    .lb-num { fill: #f0f6fc; font: 600 13px ui-monospace, SFMono-Regular, monospace; }
    .lift-ok { fill: #3fb950; font: 700 16px ui-monospace, SFMono-Regular, monospace; }
    .lift-bad{ fill: #f85149; font: 700 16px ui-monospace, SFMono-Regular, monospace; }
  ]]></style>
  <defs>
    <!-- Static rect width = final reveal width so non-SMIL renderers show
         the fully-revealed lines. SMIL viewers see the animation override. -->
    <clipPath id="reveal-train">
      <rect x="58" y="91" height="273" width="630.1">
        <animate attributeName="width"
          values="0;0;630.1;630.1;630.1"
          keyTimes="0;0.1286;0.2143;0.9964;1"
          dur="14.0s" repeatCount="indefinite"/>
      </rect>
    </clipPath>
    <clipPath id="reveal-fc">
      <rect x="688.11" y="91" height="273" width="213.9">
        <animate attributeName="width"
          values="0;0;213.9;213.9;213.9"
          keyTimes="0;0.4643;0.5714;0.9964;1"
          dur="14.0s" repeatCount="indefinite"/>
      </rect>
    </clipPath>
    <clipPath id="reveal-truth">
      <rect x="688.11" y="91" height="273" width="213.9">
        <animate attributeName="width"
          values="0;0;213.9;213.9;213.9"
          keyTimes="0;0.6071;0.6929;0.9964;1"
          dur="14.0s" repeatCount="indefinite"/>
      </rect>
    </clipPath>
  </defs>

  <rect class="panel" width="960" height="540" rx="10"/>
  <rect class="border" x="0.5" y="0.5" width="959" height="539" rx="10"/>

  <text class="title" x="60" y="42">M5 pipeline · fit → predict → score</text>
  <text class="meta" x="60" y="528">30,490 series  ·  trained @ 2016-05-22  ·  mlforecast 1.0.31</text>
  <text class="meta" x="900" y="528" text-anchor="end">hero · FOODS · 3 · 723 · CA · 2</text>

  <text x="60" y="68" class="caption" opacity="0">30,490 series · pick one
              <animate attributeName="opacity"
                       values="0;1;1;0"
                       keyTimes="0;0.0143;0.1143;0.1286"
                       dur="14.0s" repeatCount="indefinite"/>
            </text><text x="60" y="68" class="caption" opacity="0">Training context — last 84 days of FOODS · 3 · 723 · CA · 2
              <animate attributeName="opacity"
                       values="0;1;1;0"
                       keyTimes="0;0.1429;0.2;0.2143"
                       dur="14.0s" repeatCount="indefinite"/>
            </text><text x="60" y="68" class="caption" opacity="0">Rolling-origin CV: hold out h=28 days
              <animate attributeName="opacity"
                       values="0;1;1;0"
                       keyTimes="0;0.2286;0.3071;0.3214"
                       dur="14.0s" repeatCount="indefinite"/>
            </text><text x="60" y="68" class="caption" opacity="0">Build features at the cutoff: 8 columns
              <animate attributeName="opacity"
                       values="0;1;1;0"
                       keyTimes="0;0.3357;0.45;0.4643"
                       dur="14.0s" repeatCount="indefinite"/>
            </text><text x="60" y="68" class="caption" opacity="0">Fit LightGBM (Tweedie) — global model across all series
              <animate attributeName="opacity"
                       values="0;1;1;0"
                       keyTimes="0;0.4786;0.5571;0.5714"
                       dur="14.0s" repeatCount="indefinite"/>
            </text><text x="60" y="68" class="caption" opacity="0">Predict 28 days from 2016-04-24
              <animate attributeName="opacity"
                       values="0;1;1;0"
                       keyTimes="0;0.5857;0.7;0.7143"
                       dur="14.0s" repeatCount="indefinite"/>
            </text><text x="60" y="68" class="caption" opacity="1">Score vs truth — RMSE LGBM 4.05 vs Naive 6.10
              <animate attributeName="opacity"
                       values="0;1;1;1"
                       keyTimes="0;0.7286;0.9857;1"
                       dur="14.0s" repeatCount="indefinite"/>
            </text>

  <g>
    <line x1="60" y1="161.25" x2="900" y2="161.25" class="grid"/><line x1="60" y1="227.50" x2="900" y2="227.50" class="grid"/><line x1="60" y1="293.75" x2="900" y2="293.75" class="grid"/>
    <line x1="60" y1="95" x2="60" y2="360" class="axis"/>
    <line x1="60" y1="360" x2="900" y2="360" class="axis"/>
    <line x1="60.00" y1="360" x2="60.00" y2="364" class="tick"/><line x1="165.95" y1="360" x2="165.95" y2="364" class="tick"/><line x1="271.89" y1="360" x2="271.89" y2="364" class="tick"/><line x1="377.84" y1="360" x2="377.84" y2="364" class="tick"/><line x1="483.78" y1="360" x2="483.78" y2="364" class="tick"/><line x1="589.73" y1="360" x2="589.73" y2="364" class="tick"/><line x1="695.68" y1="360" x2="695.68" y2="364" class="tick"/><line x1="801.62" y1="360" x2="801.62" y2="364" class="tick"/>
  </g>

  <g class="train-mask" opacity="1">
    <rect x="60" y="95" width="628.11" height="265"/>
    <animate attributeName="opacity" values="0;0;1;1;1" keyTimes="0;0.2143;0.25;0.9964;1" dur="14.0s" repeatCount="indefinite"/>
  </g>
  <g class="test-mask" opacity="1">
    <rect x="688.11" y="95" width="211.89" height="265"/>
    <animate attributeName="opacity" values="0;0;1;1;1" keyTimes="0;0.2286;0.2643;0.9964;1" dur="14.0s" repeatCount="indefinite"/>
  </g>

  <g clip-path="url(#reveal-train)">
    <polyline class="train" points="60.00,302.39 67.57,334.40 75.14,302.39 82.70,295.99 90.27,276.79 97.84,129.57 105.41,244.78 112.97,302.39 120.54,308.79 128.11,289.59 135.68,315.19 143.24,315.19 150.81,263.99 158.38,263.99 165.95,295.99 173.51,315.19 181.08,328.00 188.65,283.19 196.22,283.19 203.78,187.17 211.35,251.18 218.92,302.39 226.49,308.79 234.05,302.39 241.62,308.79 249.19,276.79 256.76,231.98 264.32,257.58 271.89,289.59 279.46,308.79 287.03,328.00 294.59,347.20 302.16,276.79 309.73,225.58 317.30,251.18 324.86,289.59 332.43,308.79 340.00,328.00 347.57,315.19 355.14,193.57 362.70,238.38 370.27,276.79 377.84,340.80 385.41,283.19 392.97,270.39 400.54,289.59 408.11,315.19 415.68,231.98 423.24,315.19 430.81,340.80 438.38,321.59 445.95,283.19 453.51,289.59 461.08,148.77 468.65,161.57 476.22,167.97 483.78,295.99 491.35,340.80 498.92,276.79 506.49,315.19 514.05,161.57 521.62,193.57 529.19,257.58 536.76,295.99 544.32,334.40 551.89,295.99 559.46,231.98 567.03,199.98 574.59,155.17 582.16,257.58 589.73,308.79 597.30,315.19 604.86,289.59 612.43,251.18 620.00,225.58 627.57,206.38 635.14,225.58 642.70,302.39 650.27,302.39 657.84,289.59 665.41,334.40 672.97,193.57 680.54,187.17 688.11,283.19"/>
  </g>

  <g opacity="1">
    <line class="cutoff" x1="688.11" y1="89" x2="688.11" y2="366"/>
    <text class="caption" x="688.11" y="71" text-anchor="middle">cutoff · 2016-04-24</text>
    <animate attributeName="opacity" values="0;0;1;1;1" keyTimes="0;0.2143;0.2571;0.9964;1" dur="14.0s" repeatCount="indefinite"/>
  </g>

  <g class="pill" opacity="1">
              <rect x="700.1" y="67.0" width="50" height="18" rx="9" />
              <text x="725.1" y="80.0" text-anchor="middle">lag 7</text>
              <animate attributeName="opacity"
                       values="0;0;0;1;1;1;1"
                       keyTimes="0;0.3;0.3214;0.3571;0.6786;0.9964;1"
                       dur="14.0s" repeatCount="indefinite"/>
            </g><g class="pill" opacity="1">
              <rect x="756.1" y="67.0" width="50" height="18" rx="9" />
              <text x="781.1" y="80.0" text-anchor="middle">lag 14</text>
              <animate attributeName="opacity"
                       values="0;0;0;1;1;1;1"
                       keyTimes="0;0.3;0.3257;0.3614;0.6786;0.9964;1"
                       dur="14.0s" repeatCount="indefinite"/>
            </g><g class="pill" opacity="1">
              <rect x="812.1" y="67.0" width="50" height="18" rx="9" />
              <text x="837.1" y="80.0" text-anchor="middle">lag 28</text>
              <animate attributeName="opacity"
                       values="0;0;0;1;1;1;1"
                       keyTimes="0;0.3;0.33;0.3657;0.6786;0.9964;1"
                       dur="14.0s" repeatCount="indefinite"/>
            </g><g class="pill" opacity="1">
              <rect x="868.1" y="67.0" width="50" height="18" rx="9" />
              <text x="893.1" y="80.0" text-anchor="middle">roll 7</text>
              <animate attributeName="opacity"
                       values="0;0;0;1;1;1;1"
                       keyTimes="0;0.3;0.3343;0.37;0.6786;0.9964;1"
                       dur="14.0s" repeatCount="indefinite"/>
            </g><g class="pill" opacity="1">
              <rect x="924.1" y="67.0" width="50" height="18" rx="9" />
              <text x="949.1" y="80.0" text-anchor="middle">roll 28</text>
              <animate attributeName="opacity"
                       values="0;0;0;1;1;1;1"
                       keyTimes="0;0.3;0.3386;0.3743;0.6786;0.9964;1"
                       dur="14.0s" repeatCount="indefinite"/>
            </g><g class="pill" opacity="1">
              <rect x="980.1" y="67.0" width="50" height="18" rx="9" />
              <text x="1005.1" y="80.0" text-anchor="middle">price</text>
              <animate attributeName="opacity"
                       values="0;0;0;1;1;1;1"
                       keyTimes="0;0.3;0.3429;0.3786;0.6786;0.9964;1"
                       dur="14.0s" repeatCount="indefinite"/>
            </g><g class="pill" opacity="1">
              <rect x="1036.1" y="67.0" width="50" height="18" rx="9" />
              <text x="1061.1" y="80.0" text-anchor="middle">snap</text>
              <animate attributeName="opacity"
                       values="0;0;0;1;1;1;1"
                       keyTimes="0;0.3;0.3471;0.3829;0.6786;0.9964;1"
                       dur="14.0s" repeatCount="indefinite"/>
            </g><g class="pill" opacity="1">
              <rect x="1092.1" y="67.0" width="50" height="18" rx="9" />
              <text x="1117.1" y="80.0" text-anchor="middle">is_event</text>
              <animate attributeName="opacity"
                       values="0;0;0;1;1;1;1"
                       keyTimes="0;0.3;0.3514;0.3871;0.6786;0.9964;1"
                       dur="14.0s" repeatCount="indefinite"/>
            </g>

  <g clip-path="url(#reveal-fc)">
    <polyline class="base" points="688.11,302.39 695.68,302.39 703.24,289.59 710.81,334.40 718.38,193.57 725.95,187.17 733.51,283.19 741.08,302.39 748.65,302.39 756.22,289.59 763.78,334.40 771.35,193.57 778.92,187.17 786.49,283.19 794.05,302.39 801.62,302.39 809.19,289.59 816.76,334.40 824.32,193.57 831.89,187.17 839.46,283.19 847.03,302.39 854.59,302.39 862.16,289.59 869.73,334.40 877.30,193.57 884.86,187.17 892.43,283.19"/>
    <polyline class="fc" points="688.11,290.99 695.68,292.39 703.24,284.30 710.81,285.06 718.38,233.82 725.95,211.57 733.51,245.35 741.08,284.93 748.65,285.33 756.22,282.73 763.78,275.55 771.35,235.92 778.92,210.45 786.49,254.38 794.05,286.76 801.62,284.56 809.19,281.73 816.76,275.49 824.32,246.96 831.89,222.41 839.46,230.62 847.03,288.18 854.59,285.90 862.16,282.02 869.73,274.04 877.30,243.48 884.86,214.94 892.43,235.43"/>
  </g>

  <g clip-path="url(#reveal-truth)">
    <polyline class="truth" points="688.11,328.00 695.68,321.59 703.24,315.19 710.81,257.58 718.38,238.38 725.95,199.98 733.51,270.39 741.08,289.59 748.65,289.59 756.22,295.99 763.78,302.39 771.35,276.79 778.92,167.97 786.49,276.79 794.05,289.59 801.62,276.79 809.19,276.79 816.76,276.79 824.32,231.98 831.89,219.18 839.46,263.99 847.03,270.39 854.59,315.19 862.16,238.38 869.73,251.18 877.30,225.58 884.86,155.17 892.43,219.18"/>
    <line x1="688.11" y1="328.00" x2="688.11" y2="290.99" class="err"/><line x1="695.68" y1="321.59" x2="695.68" y2="292.39" class="err"/><line x1="703.24" y1="315.19" x2="703.24" y2="284.30" class="err"/><line x1="710.81" y1="257.58" x2="710.81" y2="285.06" class="err"/><line x1="718.38" y1="238.38" x2="718.38" y2="233.82" class="err"/><line x1="725.95" y1="199.98" x2="725.95" y2="211.57" class="err"/><line x1="733.51" y1="270.39" x2="733.51" y2="245.35" class="err"/><line x1="741.08" y1="289.59" x2="741.08" y2="284.93" class="err"/><line x1="748.65" y1="289.59" x2="748.65" y2="285.33" class="err"/><line x1="756.22" y1="295.99" x2="756.22" y2="282.73" class="err"/><line x1="763.78" y1="302.39" x2="763.78" y2="275.55" class="err"/><line x1="771.35" y1="276.79" x2="771.35" y2="235.92" class="err"/><line x1="778.92" y1="167.97" x2="778.92" y2="210.45" class="err"/><line x1="786.49" y1="276.79" x2="786.49" y2="254.38" class="err"/><line x1="794.05" y1="289.59" x2="794.05" y2="286.76" class="err"/><line x1="801.62" y1="276.79" x2="801.62" y2="284.56" class="err"/><line x1="809.19" y1="276.79" x2="809.19" y2="281.73" class="err"/><line x1="816.76" y1="276.79" x2="816.76" y2="275.49" class="err"/><line x1="824.32" y1="231.98" x2="824.32" y2="246.96" class="err"/><line x1="831.89" y1="219.18" x2="831.89" y2="222.41" class="err"/><line x1="839.46" y1="263.99" x2="839.46" y2="230.62" class="err"/><line x1="847.03" y1="270.39" x2="847.03" y2="288.18" class="err"/><line x1="854.59" y1="315.19" x2="854.59" y2="285.90" class="err"/><line x1="862.16" y1="238.38" x2="862.16" y2="282.02" class="err"/><line x1="869.73" y1="251.18" x2="869.73" y2="274.04" class="err"/><line x1="877.30" y1="225.58" x2="877.30" y2="243.48" class="err"/><line x1="884.86" y1="155.17" x2="884.86" y2="214.94" class="err"/><line x1="892.43" y1="219.18" x2="892.43" y2="235.43" class="err"/>
  </g>

  <!-- Legend (top-right of plot) -->
  <g transform="translate(700,99)">
    <line class="legend-sw" x1="0" y1="0" x2="14" y2="0" stroke="#c9d1d9"/>
    <text class="legend-tx" x="20" y="4">train</text>
    <line class="legend-sw" x1="62" y1="0" x2="76" y2="0" stroke="#58a6ff"/>
    <text class="legend-tx" x="82" y="4">truth</text>
    <line class="legend-sw" x1="124" y1="0" x2="138" y2="0" stroke="#f778ba"/>
    <text class="legend-tx" x="144" y="4">LGBM</text>
  </g>

  <!-- Leaderboard panel -->
  <g transform="translate(140,415)" opacity="1">
    <animate attributeName="opacity" values="0;0;1;1;1" keyTimes="0;0.7143;0.7643;0.9964;1" dur="14.0s" repeatCount="indefinite"/>
    <rect class="lb-bg" x="-12" y="-12" width="344" height="114" rx="6"/>
    <text class="lb-label" x="0" y="6">RMSE on the held-out window</text>

    <text class="lb-label" x="0" y="32">Seasonal Naive</text>
    <rect class="lb-bar-base" x="120" y="20" rx="3"
          height="14" width="278.3">
      <animate attributeName="width" values="0;0;278.3;278.3;278.3"
               keyTimes="0;0.7429;0.8143;0.9964;1"
               dur="14.0s" repeatCount="indefinite"/>
    </rect>
    <text class="lb-num" x="326" y="32">6.10</text>

    <text class="lb-label" x="0" y="62">LightGBM</text>
    <rect class="lb-bar-lgbm" x="120" y="50" rx="3"
          height="14" width="184.8">
      <animate attributeName="width" values="0;0;184.8;184.8;184.8"
               keyTimes="0;0.7571;0.8286;0.9964;1"
               dur="14.0s" repeatCount="indefinite"/>
    </rect>
    <text class="lb-num" x="326" y="62">4.05</text>

    <text class="lift-ok" x="0" y="92">-33.6% RMSE</text>
  </g>
</svg>
